# xmcd CD database file
# Copyright (C) 1995-1998 Ti Kan
#
# Track frame offsets:
#	150
#	12317
#	21332
#	29055
#	39335
#	45325
#	57612
#	65575
#	80867
#	89717
#	100977
#	108437
#	119122
#	130345
#	141897
#	150687
#	164490
#	171687
#	183157
#	192062
#
# Disc length: 2661 seconds
#
# Revision: 1
# Processed by: cddbd v1.4b41PL1 Copyright (c) Steve Scherf et al.
# Submitted via: CDex 1.40Beta1
#
DISCID=2b0a6314
DTITLE=Jim Reeves - Four walls - Live
DYEAR=1900
DGENRE=Country
TTITLE0=Four Walls
TTITLE1=I'd Like To Be
TTITLE2=I Know One
TTITLE3=Anna Marie
TTITLE4=Have I Told You Lately That I Love You
TTITLE5=Your Old love Letters
TTITLE6=Till The End Of The World
TTITLE7=Making Believe
TTITLE8=According To My Heart
TTITLE9=Just Call Me Lonesome
TTITLE10=Blue Boy
TTITLE11=I Missed Me
TTITLE12=Am I Losing You?
TTITLE13=I Love You More
TTITLE14=If You Were Only Mine
TTITLE15=How's The World Treating You?
TTITLE16=I'm Beginning To Forget You
TTITLE17=If Heartache Is The Fashion
TTITLE18=Old Time Religion
TTITLE19=In A Mansion Stands My Love
EXTD=ID3G:   2
EXTT0=
EXTT1=
EXTT2=
EXTT3=
EXTT4=
EXTT5=
EXTT6=
EXTT7=
EXTT8=
EXTT9=
EXTT10=
EXTT11=
EXTT12=
EXTT13=
EXTT14=
EXTT15=
EXTT16=
EXTT17=
EXTT18=
EXTT19=
PLAYORDER=
